<svg width="972" height="827" xmlns="http://www.w3.org/2000/svg"><defs><linearGradient x1="0%" y1="37.3%" x2="100%" y2="62.7%" id="a"><stop stop-color="#57D0FF" offset="0%"/><stop stop-color="#2CB4FF" offset="100%"/></linearGradient></defs><g fill="none" fill-rule="evenodd"><path d="M605 718c31 0 56 24 56 54 0 31-25 55-55 55-29 0-56-21-56-52 0-33 23-57 55-57zm-546 2a6 6 0 0 1 5 3l39 63-1-60a6 6 0 0 1 6-6h14a6 6 0 0 1 6 6v93a6 6 0 0 1-6 6h-14a6 6 0 0 1-5-3l-39-61 1 58a6 6 0 0 1-6 6H45a6 6 0 0 1-6-6v-93a6 6 0 0 1 6-6zm169 0a6 6 0 0 1 5 6v12a6 6 0 0 1-5 5h-27v17h26a6 6 0 0 1 5 5v13a6 6 0 0 1-5 5h-26v18h27a6 6 0 0 1 5 6v12a6 6 0 0 1-5 6h-48a6 6 0 0 1-5-6v-93a6 6 0 0 1 5-6zm112 0a6 6 0 0 1 5 6v12a6 6 0 0 1-5 5h-15v76a6 6 0 0 1-6 6h-16a6 6 0 0 1-5-6v-76h-15a6 6 0 0 1-6-5v-12a6 6 0 0 1 6-6zm67 0a6 6 0 0 1 6 4l13 64 15-64a6 6 0 0 1 5-4h12a6 6 0 0 1 5 4l14 64h1l13-64a6 6 0 0 1 6-4h15a6 6 0 0 1 5 7l-25 94a6 6 0 0 1-5 4h-15a6 6 0 0 1-5-4l-15-64-15 64a6 6 0 0 1-6 4h-15a6 6 0 0 1-6-4l-24-94a6 6 0 0 1 6-7zm332 0c11 0 19 1 25 4 11 5 19 17 19 32 0 17-10 30-26 33l25 32a3 3 0 0 1-2 4h-22a6 6 0 0 1-5-2l-22-32h-1v28a6 6 0 0 1-5 6h-15a6 6 0 0 1-5-6v-93a6 6 0 0 1 5-6zm109 0a6 6 0 0 1 6 6v41l28-45a6 6 0 0 1 5-2h14a6 6 0 0 1 5 9l-29 43 31 44a6 6 0 0 1-5 9h-17c-2 0-4-1-5-3l-27-42v39a6 6 0 0 1-6 6h-15a6 6 0 0 1-6-6v-93a6 6 0 0 1 6-6zm-243 21c-17 0-29 15-29 31 0 17 12 31 29 31s29-14 29-30c0-17-12-32-29-32zm136 2h-11v30h10c11 0 18-5 18-15 0-9-7-15-17-15zm20-173c22 0 43 14 51 33v1a3 3 0 0 1-2 3h-23a6 6 0 0 1-5-2l-1-1c-5-7-12-10-21-10-16 0-28 13-28 30 0 18 11 32 29 32 12 0 21-6 25-17h-26a6 6 0 0 1-6-6v-10a6 6 0 0 1 6-6h51a6 6 0 0 1 6 6c0 29-21 56-56 56-31 0-56-24-56-55 0-32 26-54 56-54zm108 0c7 0 13 2 18 4 11 6 16 13 17 26 0 2-1 3-2 3h-22a3 3 0 0 1-3-2v-1c-1-5-4-8-9-8s-9 4-9 9c0 6 6 9 17 14 23 10 29 18 29 32 0 20-14 32-37 32-22 0-37-12-38-34v-1a2 2 0 0 1 3-2h22l2 2c1 8 5 13 11 13s10-5 10-10c0-7-6-10-14-13v-1h-2l-1-1h-2l-2-1c-17-7-25-16-25-30 0-18 17-31 37-31zm-253 2 5 2v1l39 64-1-61a6 6 0 0 1 5-6h15a6 6 0 0 1 6 5v94a6 6 0 0 1-6 6h-15l-4-2-39-62 1 58a6 6 0 0 1-6 6h-14a6 6 0 0 1-6-5v-94a6 6 0 0 1 5-6h15zm-523 0a6 6 0 0 1 6 5v13a6 6 0 0 1-5 6H79v75a6 6 0 0 1-6 6H57a6 6 0 0 1-5-5v-76H37a6 6 0 0 1-6-6v-12a6 6 0 0 1 5-6h57zm44 0a6 6 0 0 1 5 5v35h35v-34a6 6 0 0 1 5-6h16a6 6 0 0 1 6 5v94a6 6 0 0 1-6 6h-15a6 6 0 0 1-6-5v-37h-35v36a6 6 0 0 1-5 6h-16a6 6 0 0 1-5-5v-94a6 6 0 0 1 5-6h16zm144 0a6 6 0 0 1 6 5v13a6 6 0 0 1-6 6h-27v16h26a6 6 0 0 1 6 5v13a6 6 0 0 1-6 6h-26v18h27a6 6 0 0 1 6 5v12a6 6 0 0 1-6 6h-47a6 6 0 0 1-6-5v-94a6 6 0 0 1 6-6h47zm128 0a6 6 0 0 1 6 5v13a6 6 0 0 1-5 6h-15v75a6 6 0 0 1-6 6h-16a6 6 0 0 1-5-5v-76h-15a6 6 0 0 1-6-6v-12a6 6 0 0 1 5-6h57zm44 0a6 6 0 0 1 5 5v35h35v-34a6 6 0 0 1 5-6h16a6 6 0 0 1 6 5v94a6 6 0 0 1-6 6h-15a6 6 0 0 1-6-5v-37h-35v36a6 6 0 0 1-5 6h-16a6 6 0 0 1-5-5v-94a6 6 0 0 1 5-6h16zm113 0a6 6 0 0 1 5 5v94a6 6 0 0 1-5 6h-16a6 6 0 0 1-6-5v-94a6 6 0 0 1 6-6h16z" fill="#000" fill-rule="nonzero"/><path d="M511 0c91 0 165 68 175 156a115 115 0 0 1 145 31v1a114 114 0 0 1 21 95 104 104 0 0 1-19 207h-2l-700-1a116 116 0 0 1-16 1 115 115 0 1 1 0-230 156 156 0 0 1 229-138C367 51 433 0 511 0zm234 75a192 192 0 0 1 155 98 192 192 0 0 1 15 35 18 18 0 0 1-34 11 157 157 0 0 0-12-28 158 158 0 0 0-96-75 157 157 0 0 0-29-5h-1a18 18 0 1 1 2-36zm9-61a246 246 0 0 1 48 8 248 248 0 0 1 149 116 246 246 0 0 1 20 45 18 18 0 0 1-34 11 210 210 0 0 0-16-38A212 212 0 0 0 793 56a210 210 0 0 0-41-7 18 18 0 1 1 2-35z" fill="url(#a)"/></g></svg>